<svg width="25" height="17" viewBox="0 0 25 17" fill="none" xmlns="http://www.w3.org/2000/svg">
<g id="Icon">
<path id="Vector" d="M13.3106 9.17133L9.55815 15.5981L5.80572 9.17133H13.3106ZM14.3159 8.59692H4.79639L9.55815 16.7348L14.3159 8.59692Z" fill="#263238"/>
<path id="Vector_2" d="M19.8348 1.17808L23.5872 7.60481H16.0823L19.8348 1.17808ZM19.8348 0.0292969L15.073 8.16715H24.5966L19.8348 0.0292969Z" fill="#263238"/>
<path id="Vector_3" d="M0.233887 0.0292969L4.22647 7.22725L8.5894 0.210039L0.233887 0.0292969Z" fill="#E53835"/>
<path id="Vector_4" d="M9.55813 0.659668L13.7461 7.81746H5.36206L9.55813 0.659668Z" fill="#E53835"/>
<path id="Vector_5" d="M14.8245 9.38013L19.0165 16.7348H10.4331L14.6943 9.38013H14.8245Z" fill="#E53835"/>
<path id="Vector_6" d="M15.7322 8.93433L19.8346 16.1765L23.9941 8.93433H15.7322Z" fill="#E53835"/>
</g>
</svg>
